<svg viewBox="0 0 126 187" fill="none" xmlns="http://www.w3.org/2000/svg"><path fill-rule="evenodd" clip-rule="evenodd" d="M51.6055 45.3459C56.9993 56.2852 62.8336 68.1181 62.8336 110.542C62.5556 86.0304 58.2289 75.5694 53.6536 64.5071C48.3248 51.6227 42.6585 37.9227 42.6585 0.256897C42.6585 27.2001 46.9692 35.9429 51.6055 45.3459ZM74.2943 44.4785C78.7512 34.3177 82.8701 24.9276 83.0941 2.22165C82.8572 33.079 77.099 49.7505 71.7969 65.1012C67.1917 78.4345 62.9306 90.7714 62.9306 110.542C62.9306 70.3853 68.8635 56.8597 74.2943 44.4785Z" fill="#ffdb84"></path> <path d="M99.9906 186.137H103V186.722H99.371V180.526H102.956V181.11H99.9906V183.305H102.734V183.889H99.9906V186.137Z" fill="#ffdb84"></path> <path d="M91.2426 186.827C90.3044 186.827 89.5285 186.517 88.9148 185.898C88.3011 185.278 87.9943 184.52 87.9943 183.623C87.9943 182.726 88.3011 181.968 88.9148 181.348C89.5285 180.729 90.3044 180.419 91.2426 180.419C91.815 180.419 92.3402 180.558 92.8181 180.835C93.2961 181.106 93.6649 181.475 93.9245 181.941L93.3758 182.26C93.181 181.882 92.8919 181.581 92.5083 181.357C92.1248 181.133 91.7029 181.021 91.2426 181.021C90.4696 181.021 89.8383 181.272 89.3485 181.773C88.8587 182.275 88.6138 182.891 88.6138 183.623C88.6138 184.355 88.8587 184.971 89.3485 185.473C89.8383 185.975 90.4696 186.225 91.2426 186.225C91.7029 186.225 92.1248 186.113 92.5083 185.889C92.8919 185.665 93.181 185.364 93.3758 184.986L93.9245 185.296C93.6708 185.762 93.302 186.134 92.8181 186.411C92.3402 186.689 91.815 186.827 91.2426 186.827Z" fill="#ffdb84"></path> <path d="M81.8921 180.526H82.5117V186.722H81.9806L78.5286 181.676V186.722H77.9091V180.526H78.4401L81.8921 185.571V180.526Z" fill="#ffdb84"></path> <path d="M69.4095 186.137H72.4189V186.722H68.7899V180.526H72.3746V181.11H69.4095V183.305H72.1534V183.889H69.4095V186.137Z" fill="#ffdb84"></path> <path d="M60.3865 180.526C61.2303 180.526 61.9266 180.827 62.4754 181.429C63.0301 182.025 63.3074 182.756 63.3074 183.624C63.3074 184.491 63.0301 185.226 62.4754 185.828C61.9266 186.424 61.2303 186.722 60.3865 186.722H57.9967V180.526H60.3865ZM60.3865 186.137C61.0651 186.137 61.6198 185.896 62.0505 185.412C62.4872 184.928 62.7055 184.332 62.7055 183.624C62.7055 182.916 62.4872 182.32 62.0505 181.836C61.6198 181.352 61.0651 181.11 60.3865 181.11H58.6163V186.137H60.3865Z" fill="#ffdb84"></path> <path d="M51.527 180.526H52.1466V186.722H51.527V180.526Z" fill="#ffdb84"></path> <path d="M43.9878 186.827C43.4213 186.827 42.9345 186.694 42.5274 186.429C42.1261 186.157 41.8458 185.786 41.6865 185.314L42.2176 185.004C42.3297 185.387 42.5362 185.688 42.8372 185.907C43.1381 186.119 43.5246 186.225 43.9967 186.225C44.4569 186.225 44.8139 186.125 45.0677 185.924C45.3273 185.718 45.4571 185.446 45.4571 185.11C45.4571 184.786 45.3391 184.541 45.1031 184.375C44.867 184.21 44.4776 184.039 43.9347 183.862C43.2915 183.65 42.8667 183.478 42.6601 183.349C42.1881 183.065 41.9521 182.655 41.9521 182.118C41.9521 181.593 42.135 181.18 42.5008 180.879C42.8667 180.572 43.3181 180.419 43.8551 180.419C44.3389 180.419 44.7579 180.546 45.1119 180.8C45.466 181.047 45.7285 181.366 45.8997 181.755L45.3775 182.048C45.0942 181.363 44.5867 181.021 43.8551 181.021C43.4715 181.021 43.1617 181.115 42.9257 181.304C42.6897 181.493 42.5716 181.755 42.5716 182.092C42.5716 182.399 42.6779 182.629 42.8903 182.782C43.1027 182.936 43.4538 183.092 43.9436 183.251C44.1678 183.328 44.3271 183.384 44.4215 183.419C44.5218 183.449 44.6635 183.502 44.8464 183.579C45.0352 183.65 45.1739 183.715 45.2624 183.774C45.3509 183.827 45.4571 183.903 45.581 184.004C45.7108 184.098 45.8023 184.195 45.8554 184.296C45.9144 184.39 45.9646 184.508 46.0059 184.65C46.0531 184.786 46.0767 184.933 46.0767 185.092C46.0767 185.618 45.8849 186.039 45.5014 186.358C45.1178 186.671 44.6133 186.827 43.9878 186.827Z" fill="#ffdb84"></path> <path d="M33.5432 186.137H36.5526V186.722H32.9236V180.526H36.5084V181.11H33.5432V183.305H36.2871V183.889H33.5432V186.137Z" fill="#ffdb84"></path> <path d="M26.9026 186.722L25.451 184.243H23.7162V186.722H23.0966V180.526H25.5749C26.0883 180.526 26.525 180.709 26.8849 181.075C27.2508 181.435 27.4337 181.871 27.4337 182.385C27.4337 182.804 27.3068 183.178 27.0531 183.509C26.8052 183.833 26.4866 184.052 26.0972 184.164L27.6107 186.722H26.9026ZM23.7162 181.11V183.659H25.5749C25.9172 183.659 26.2093 183.535 26.4512 183.287C26.6931 183.034 26.8141 182.733 26.8141 182.385C26.8141 182.031 26.6931 181.73 26.4512 181.482C26.2093 181.234 25.9172 181.11 25.5749 181.11H23.7162Z" fill="#ffdb84"></path> <path fill-rule="evenodd" clip-rule="evenodd" d="M0 138.583L10.2059 157.435L20.1889 138.608H19.6935L11.717 153.595L3.81484 138.608L0 138.583ZM114.128 157.435H117.473V147.848L125.845 138.608H125.152L117.225 147.204L109.471 138.608H105.879L114.128 148.021V157.435ZM96.1039 157.608V139.128H104.551V138.757H84.5851V139.128H92.7597V157.608H96.1039ZM82.8184 157.559H79.4742V138.707H82.8184V157.559ZM78.1222 157.187H66.6033V138.707H63.2591V157.559H78.1222V157.187ZM54.2869 151.044L49.6794 142.349L45.171 151.044H54.2869ZM51.0419 138.707L61.0001 157.559H57.7302L54.4603 151.39H44.9728L41.802 157.534H41.3066L51.0419 138.707ZM39.1557 157.608V139.128H47.6029V138.757H27.6369V139.128H35.8115V157.608H39.1557ZM25.8688 157.559H22.5246V138.707H25.8688V157.559Z" fill="#ffdb84"></path></svg>